<mxfile host="app.diagrams.net" agent="Mozilla/5.0 (Windows NT 10.0; Win64; x64) AppleWebKit/537.36 (KHTML, like Gecko) Chrome/133.0.0.0 Safari/537.36" version="26.1.0">
  <diagram name="Page-1" id="h5GvaVPgVZxF3tNwi2n-">
    <mxGraphModel dx="1534" dy="649" grid="0" gridSize="10" guides="1" tooltips="1" connect="1" arrows="1" fold="1" page="0" pageScale="1" pageWidth="850" pageHeight="1100" math="0" shadow="0">
      <root>
        <mxCell id="0" />
        <mxCell id="1" parent="0" />
        <mxCell id="ChNgTHVkPhoJs_HGRSRP-6" value="&lt;font face=&quot;Nunito&quot; style=&quot;font-size: 30px;&quot; data-font-src=&quot;https://fonts.googleapis.com/css?family=Nunito&quot;&gt;&lt;span style=&quot;&quot; class=&quot;hljs-keyword&quot;&gt;&lt;font style=&quot;color: rgb(0, 102, 204);&quot;&gt;SELECT&lt;/font&gt;&lt;/span&gt; &lt;font style=&quot;color: rgb(255, 128, 0);&quot;&gt;e.name&lt;/font&gt;, &lt;span style=&quot;&quot; class=&quot;hljs-built_in&quot;&gt;&lt;font style=&quot;color: rgb(0, 102, 204);&quot;&gt;AV&lt;/font&gt;&lt;font style=&quot;color: rgb(0, 102, 204);&quot;&gt;G&lt;/font&gt;&lt;/span&gt;&lt;font style=&quot;color: rgb(0, 102, 204);&quot;&gt;(&lt;/font&gt;&lt;font style=&quot;color: rgb(255, 128, 0);&quot;&gt;e.salary&lt;/font&gt;&lt;font style=&quot;color: rgb(0, 102, 204);&quot;&gt;) &lt;/font&gt;&lt;br&gt;&lt;span style=&quot;&quot; class=&quot;hljs-keyword&quot;&gt;&lt;font style=&quot;color: rgb(0, 102, 204);&quot;&gt;FROM&lt;/font&gt;&lt;/span&gt; &lt;font style=&quot;color: rgb(0, 153, 0);&quot;&gt;employees e&lt;/font&gt;&lt;br&gt;&lt;span style=&quot;&quot; class=&quot;hljs-keyword&quot;&gt;&lt;font style=&quot;color: rgb(0, 102, 204);&quot;&gt;JOIN&lt;/font&gt;&lt;/span&gt; &lt;font style=&quot;color: rgb(0, 153, 0);&quot;&gt;projects p&lt;/font&gt; &lt;span style=&quot;&quot; class=&quot;hljs-keyword&quot;&gt;&lt;font style=&quot;color: rgb(0, 102, 204);&quot;&gt;ON&lt;/font&gt;&lt;/span&gt; &lt;font style=&quot;color: rgb(255, 128, 0);&quot;&gt;e.id&lt;/font&gt; &lt;span style=&quot;&quot; class=&quot;hljs-operator&quot;&gt;&lt;font style=&quot;color: rgb(0, 102, 204);&quot;&gt;=&lt;/font&gt;&lt;/span&gt; &lt;font style=&quot;color: rgb(255, 128, 0);&quot;&gt;p.emp_id&lt;/font&gt;&lt;br&gt;&lt;span style=&quot;&quot; class=&quot;hljs-keyword&quot;&gt;&lt;font style=&quot;color: rgb(0, 102, 204);&quot;&gt;WHERE&lt;/font&gt;&lt;/span&gt; &lt;font style=&quot;color: rgb(255, 128, 0);&quot;&gt;e.&lt;/font&gt;&lt;font style=&quot;color: rgb(255, 128, 0);&quot;&gt;department&lt;/font&gt; &lt;span style=&quot;&quot; class=&quot;hljs-operator&quot;&gt;&lt;font style=&quot;color: rgb(0, 102, 204);&quot;&gt;=&lt;/font&gt;&lt;/span&gt; &lt;span style=&quot;&quot; class=&quot;hljs-string&quot;&gt;&lt;font style=&quot;color: rgb(234, 107, 102);&quot;&gt;&#39;Finance&#39;&lt;/font&gt;&lt;/span&gt;&lt;/font&gt;&lt;div&gt;&lt;font face=&quot;Nunito&quot;&gt;&lt;span style=&quot;font-size: 30px;&quot;&gt;&lt;font color=&quot;#0066cc&quot;&gt;AND&amp;nbsp; p.status = &lt;/font&gt;&lt;font style=&quot;color: rgb(234, 107, 102);&quot;&gt;&#39;active&#39;&lt;/font&gt;&lt;br&gt;&lt;/span&gt;&lt;/font&gt;&lt;div&gt;&lt;font face=&quot;Nunito&quot; style=&quot;font-size: 30px;&quot; data-font-src=&quot;https://fonts.googleapis.com/css?family=Nunito&quot;&gt;&lt;font style=&quot;color: rgb(0, 102, 204);&quot;&gt;GROUP BY &lt;/font&gt;&lt;font style=&quot;color: rgb(255, 128, 0);&quot;&gt;e.department&lt;/font&gt;&lt;/font&gt;&lt;/div&gt;&lt;div&gt;&lt;font face=&quot;Nunito&quot; style=&quot;font-size: 30px;&quot; data-font-src=&quot;https://fonts.googleapis.com/css?family=Nunito&quot;&gt;&lt;font color=&quot;#ff8000&quot; style=&quot;color: rgb(0, 102, 204);&quot;&gt;HAVING COUNT(DISTINCT &lt;/font&gt;&lt;font style=&quot;color: rgb(255, 128, 0);&quot;&gt;p.id&lt;/font&gt;&lt;font color=&quot;#ff8000&quot; style=&quot;color: rgb(0, 102, 204);&quot;&gt;) &amp;gt;= &lt;/font&gt;&lt;font style=&quot;color: rgb(234, 107, 102);&quot;&gt;2&lt;/font&gt;&lt;font style=&quot;color: rgb(0, 102, 204);&quot;&gt;;&lt;/font&gt;&lt;/font&gt;&lt;/div&gt;&lt;/div&gt;" style="text;html=1;align=left;verticalAlign=middle;whiteSpace=wrap;rounded=0;" vertex="1" parent="1">
          <mxGeometry x="32" y="11" width="517" height="238" as="geometry" />
        </mxCell>
        <mxCell id="ChNgTHVkPhoJs_HGRSRP-7" value="&lt;font data-font-src=&quot;https://fonts.googleapis.com/css?family=Nunito&quot; face=&quot;Nunito&quot; style=&quot;font-size: 30px; color: rgb(68, 68, 68);&quot;&gt;Now filters employees based on active projects.&lt;/font&gt;" style="text;html=1;align=left;verticalAlign=middle;whiteSpace=wrap;rounded=0;" vertex="1" parent="1">
          <mxGeometry x="-56" y="344" width="351" height="238" as="geometry" />
        </mxCell>
        <mxCell id="ChNgTHVkPhoJs_HGRSRP-9" value="&lt;font data-font-src=&quot;https://fonts.googleapis.com/css?family=Nunito&quot; face=&quot;Nunito&quot; style=&quot;font-size: 30px; color: rgb(68, 68, 68);&quot;&gt;Dynamic Feedback approach improves query accuracy, adapts to errors more effectively, and ensures better contextual understanding compared to static feedback.&lt;/font&gt;" style="text;html=1;align=left;verticalAlign=middle;whiteSpace=wrap;rounded=0;" vertex="1" parent="1">
          <mxGeometry x="360" y="333" width="351" height="238" as="geometry" />
        </mxCell>
      </root>
    </mxGraphModel>
  </diagram>
</mxfile>
